HIERARCHY
ROOT Hips
{
	OFFSET 0.000000 88.474243 0.000000
	CHANNELS 6 Xposition Yposition Zposition Zrotation Yrotation Xrotation 
	JOINT Hips_Spine
	{
		OFFSET 0.000000 0.000000 0.000000
		CHANNELS 3 Zrotation Yrotation Xrotation
		JOINT Spine
		{
			OFFSET 0.005100 8.711998 -0.691000
			CHANNELS 3 Zrotation Yrotation Xrotation
			JOINT Spine1
			{
				OFFSET -0.009200 8.660301 -1.275000
				CHANNELS 3 Zrotation Yrotation Xrotation
				JOINT Spine2
				{
					OFFSET 0.006300 9.852501 -1.857000
					CHANNELS 3 Zrotation Yrotation Xrotation
					JOINT Spine2_Neck
					{
						OFFSET 0.000000 0.000000 0.000000
						CHANNELS 3 Zrotation Yrotation Xrotation
						JOINT Neck
						{
							OFFSET 0.016300 11.420799 -0.263300
							CHANNELS 3 Zrotation Yrotation Xrotation
							End Site #name: Head
							{
								OFFSET -0.019200 9.262405 2.362500
							}
						}
					}
					JOINT Spine2_LeftShoulder
					{
						OFFSET 0.000000 0.000000 0.000000
						CHANNELS 3 Zrotation Yrotation Xrotation
						JOINT LeftShoulder
						{
							OFFSET 5.616900 6.732201 -0.345700
							CHANNELS 3 Zrotation Yrotation Xrotation
							JOINT LeftArm
							{
								OFFSET 10.664888 -0.183372 -2.440700
								CHANNELS 3 Zrotation Yrotation Xrotation
								JOINT LeftForeArm
								{
									OFFSET 27.459126 0.000000 0.000000
									CHANNELS 3 Zrotation Yrotation Xrotation
									End Site #name: LeftHand
									{
										OFFSET 21.306858 0.000000 0.000000
									}
								}
							}
						}
					}
					JOINT Spine2_RightShoulder
					{
						OFFSET 0.000000 0.000000 0.000000
						CHANNELS 3 Zrotation Yrotation Xrotation
						JOINT RightShoulder
						{
							OFFSET -5.580300 6.737503 -0.344400
							CHANNELS 3 Zrotation Yrotation Xrotation
							JOINT RightArm
							{
								OFFSET -10.679335 -0.188484 -2.383900
								CHANNELS 3 Zrotation Yrotation Xrotation
								JOINT RightForeArm
								{
									OFFSET -27.503529 0.000000 0.000000
									CHANNELS 3 Zrotation Yrotation Xrotation
									End Site #name: RightHand
									{
										OFFSET -21.306808 0.000000 0.000000
									}
								}
							}
						}
					}
				}
			}
		}
	}
	JOINT Hips_LeftUpLeg
	{
		OFFSET 0.000000 0.000000 0.000000
		CHANNELS 3 Zrotation Yrotation Xrotation
		JOINT LeftUpLeg
		{
			OFFSET 6.857700 -6.739601 0.312100
			CHANNELS 3 Zrotation Yrotation Xrotation
			JOINT LeftLeg
			{
				OFFSET -0.367590 -34.731552 -4.572400
				CHANNELS 3 Zrotation Yrotation Xrotation
				End Site #name: LeftFoot
				{
					OFFSET 0.367590 -34.656704 -6.067400
				}
			}
		}
	}
	JOINT Hips_RightUpLeg
	{
		OFFSET 0.000000 0.000000 0.000000
		CHANNELS 3 Zrotation Yrotation Xrotation
		JOINT RightUpLeg
		{
			OFFSET -6.876100 -6.733299 0.301000
			CHANNELS 3 Zrotation Yrotation Xrotation
			JOINT RightLeg
			{
				OFFSET 0.347353 -34.795158 -4.515900
				CHANNELS 3 Zrotation Yrotation Xrotation
				End Site #name: RightFoot
				{
					OFFSET -0.347353 -34.589367 -6.070300
				}
			}
		}
	}
}
MOTION
Frames: 17
Frame Time: 0.041667
0.181194 0.040366 0.009840 0.239130 13.245170 -7.361538 0.000000 0.000000 0.000000 -1.662336 -0.276882 2.032226 -0.448898 -0.258381 0.549646 0.000000 0.000000 0.000000 0.091873 -0.374942 -0.360829 1.419623 -0.228844 -2.807329 0.374717 -0.838319 -0.936626 -18.598695 -7.450893 1.474376 -45.225690 -2.136794 20.576776 0.704885 -20.565180 2.710496 -0.631585 -0.105692 0.546382 15.634364 10.880261 4.243133 57.205341 -0.882339 -2.368532 0.195610 41.453260 0.719610 0.000000 0.000000 0.000000 -7.364610 12.453013 -5.491317 1.587500 3.732563 22.633047 0.000000 0.000000 0.000000 -3.256225 1.905932 -7.236918 2.679553 -2.934941 -0.776567 
0.595586 -0.010622 0.149520 1.538975 15.985868 -8.412098 0.000000 0.000000 0.000000 -3.445826 0.053617 0.222046 -0.043298 -0.105151 -0.068131 0.000000 0.000000 0.000000 -0.363366 -0.133213 -0.863921 2.408193 -1.138536 -1.973173 -0.270322 -0.278346 -1.391839 -24.551594 -3.747498 -0.259105 -39.975546 1.412196 16.622769 -0.571445 -21.605978 0.703419 -0.907187 0.039056 -0.144756 17.248002 8.454270 2.052694 59.269306 3.115924 -2.186010 0.167821 36.742846 -0.302526 0.000000 0.000000 -0.000000 -9.571189 12.000961 -3.978434 0.074706 4.551486 22.016301 0.000000 0.000000 0.000000 -6.775895 2.389037 -6.488616 2.578628 -5.179028 0.562497 
0.871627 -0.040610 0.158977 2.515421 15.980334 -8.561144 0.000000 0.000000 0.000000 -3.701074 0.178316 0.022083 -0.140024 0.187270 -0.757676 0.000000 0.000000 0.000000 0.166293 -0.239301 -1.429969 2.736271 -0.863226 -2.858331 -0.428592 -0.246230 -1.765073 -29.746132 -2.270887 -0.544499 -38.178151 12.059172 9.736078 -0.930211 -22.319270 0.859125 -0.597620 0.181125 -0.507184 17.066979 7.478732 2.005887 59.577011 5.054572 -2.667380 0.304791 31.549718 -0.420340 0.000000 0.000000 -0.000000 -11.094793 11.378864 -3.404717 -0.382368 5.333520 21.632886 0.000000 0.000000 0.000000 -8.827830 1.224861 -7.722963 2.199703 -7.624367 3.778237 
1.176985 -0.076746 0.116966 2.799344 15.515094 -8.287485 0.000000 0.000000 0.000000 -3.726618 0.190811 0.832340 0.117644 0.153589 -1.058024 0.000000 0.000000 0.000000 0.678947 -0.279209 -1.505476 2.332442 -1.359320 -2.530172 -0.135004 -0.299102 -1.873445 -32.567966 -1.811812 -0.702622 -36.860045 13.674063 7.648518 -0.814127 -23.563565 0.788376 0.047196 0.079684 -0.575917 16.286316 6.929913 1.941010 60.017506 7.725356 -3.892486 0.418012 32.838712 -0.404650 0.000000 0.000000 -0.000000 -11.980970 11.045566 -3.557728 -0.598846 5.667102 21.196280 0.000000 0.000000 0.000000 -9.691027 0.105922 -9.379468 1.522396 -7.554031 6.977835 
1.544946 -0.102190 0.057242 2.802474 15.636426 -8.010591 0.000000 0.000000 0.000000 -3.999284 0.375727 1.026754 0.252504 0.126335 -1.015813 0.000000 0.000000 0.000000 0.889481 -0.312323 -1.453769 1.994314 -1.986705 -1.666942 0.045945 -0.371348 -1.826550 -35.300971 -1.644528 -0.577797 -34.804951 13.315806 9.027713 -0.749461 -21.282638 1.495235 0.236063 0.031761 -0.439362 15.839921 6.437806 1.829233 60.764963 9.201218 -5.620793 0.497019 33.820198 -0.400557 0.000000 0.000000 -0.000000 -12.604383 10.684743 -4.090177 -0.632095 5.794931 21.534394 0.000000 0.000000 0.000000 -10.334743 -0.802583 -10.586252 1.266907 -6.779630 9.393397 
1.955355 -0.118391 -0.006323 2.691852 15.875394 -7.917750 0.000000 0.000000 0.000000 -4.345350 0.469801 0.959807 0.249914 0.084558 -0.925371 0.000000 0.000000 0.000000 0.862888 -0.335048 -1.374323 1.746756 -2.347465 -0.928833 0.080672 -0.435135 -1.734228 -37.115723 -1.299408 -0.522457 -32.719953 11.959435 10.746384 -0.690141 -17.709780 2.343057 0.256235 -0.026852 -0.346345 15.512946 5.981826 1.770122 61.551682 9.112623 -6.928717 0.586071 33.141539 -0.424983 0.000000 0.000000 -0.000000 -13.023765 10.464215 -4.455498 -0.623062 5.752472 22.012254 0.000000 0.000000 0.000000 -10.750481 -1.195931 -11.107514 1.391649 -5.544523 10.780169 
2.379381 -0.125607 -0.071749 2.525240 16.137032 -7.956488 0.000000 0.000000 0.000000 -4.545483 0.579932 0.803968 0.188606 0.074073 -0.887199 0.000000 0.000000 0.000000 0.769857 -0.327998 -1.280016 1.448880 -2.520843 -0.438954 0.054336 -0.442943 -1.635876 -38.418520 -1.020975 -0.474770 -30.974211 10.653458 12.727053 -0.632232 -13.614209 2.624470 0.218692 -0.056493 -0.332479 15.009578 5.893453 1.738666 62.526834 8.010331 -8.406148 0.670392 32.635943 -0.427660 0.000000 0.000000 -0.000000 -13.320324 10.281279 -4.701034 -0.684419 5.527798 22.556500 0.000000 0.000000 0.000000 -11.020454 -1.362936 -11.205442 1.586409 -4.349919 11.437126 
2.786666 -0.125201 -0.133917 2.333351 16.395477 -8.015784 -0.000000 0.000000 0.000000 -4.696314 0.737459 0.582783 0.088801 0.127079 -0.902958 0.000000 0.000000 0.000000 0.661354 -0.281071 -1.242552 1.248170 -2.602481 -0.180803 -0.016879 -0.381568 -1.595267 -39.511075 -0.908011 -0.413505 -29.742146 9.501157 13.820868 -0.577551 -10.209658 2.480558 0.141774 -0.009645 -0.341373 14.550908 5.886079 1.726080 63.675288 6.719176 -9.934177 0.721298 32.042610 -0.398738 0.000000 0.000000 -0.000000 -13.541343 10.163977 -4.915596 -0.825289 5.134242 23.016002 0.000000 0.000000 0.000000 -11.213134 -1.524121 -11.163427 1.691248 -3.232593 11.856843 
3.146177 -0.117214 -0.186737 2.106272 16.649505 -8.047470 0.000000 0.000000 0.000000 -4.869723 0.934305 0.456482 -0.016315 0.232805 -0.952977 0.000000 0.000000 0.000000 0.551033 -0.203147 -1.228185 1.108339 -2.670126 -0.060597 -0.109376 -0.251557 -1.614056 -40.273527 -0.800611 -0.333369 -29.015807 8.874022 14.148358 -0.535979 -7.826887 2.203420 0.028151 0.101544 -0.343924 14.003816 5.941468 1.733347 64.496302 5.818037 -10.826264 0.774626 30.436952 -0.357988 0.000000 0.000000 -0.000000 -13.692554 10.133123 -5.162469 -0.812928 4.784586 23.508712 0.000000 0.000000 0.000000 -11.320953 -1.772942 -11.118414 1.661606 -2.499114 12.178599 
3.453233 -0.103641 -0.232930 1.874652 16.829330 -8.054876 0.000000 0.000000 0.000000 -5.111240 1.137221 0.432647 -0.149125 0.360514 -1.024384 0.000000 0.000000 0.000000 0.430488 -0.110608 -1.236764 1.019241 -2.769793 -0.034047 -0.216421 -0.105746 -1.664655 -40.661899 -0.684986 -0.238156 -28.846938 8.504265 14.079132 -0.531352 -6.410247 2.083474 -0.162347 0.213560 -0.347297 13.604757 5.960498 1.721580 65.100292 5.090224 -10.942724 0.788113 28.123807 -0.354252 0.000000 0.000000 -0.000000 -13.742162 10.137992 -5.426524 -0.733604 4.561071 23.952662 0.000000 0.000000 0.000000 -11.336762 -2.134208 -11.077253 1.469340 -2.229015 12.389851 
3.703336 -0.084746 -0.274991 1.654580 16.916106 -8.046798 0.000000 0.000000 0.000000 -5.319263 1.325138 0.427755 -0.307792 0.503062 -1.107419 0.000000 0.000000 0.000000 0.295832 -0.007776 -1.262767 0.990583 -2.880392 -0.063603 -0.340489 0.057944 -1.743030 -40.699070 -0.523519 -0.151479 -29.070332 8.116000 13.884000 -0.521128 -5.959761 2.044037 -0.390341 0.344427 -0.346391 13.226755 5.933162 1.696067 65.527254 4.825521 -9.674431 0.801742 26.195257 -0.358156 0.000000 0.000000 -0.000000 -13.699250 10.129185 -5.699908 -0.607823 4.503119 24.293915 0.000000 0.000000 0.000000 -11.284381 -2.580773 -11.039149 1.164402 -2.300200 12.464069 
3.891292 -0.061262 -0.314008 1.472164 16.885846 -8.019114 0.000000 0.000000 0.000000 -5.469740 1.498598 0.425369 -0.477421 0.658138 -1.219151 0.000000 0.000000 0.000000 0.149325 0.156609 -1.332725 1.003341 -2.961395 -0.121080 -0.465822 0.235870 -1.838819 -40.464978 -0.335591 -0.047527 -29.494378 7.727699 13.870785 -0.485518 -6.050550 2.032618 -0.615172 0.527125 -0.350863 13.090275 5.847760 1.674637 65.594710 5.097750 -8.128680 0.810172 25.039078 -0.354161 0.000000 0.000000 -0.000000 -13.608141 10.085594 -5.941554 -0.427428 4.608927 24.502163 0.000000 0.000000 0.000000 -11.190221 -3.033646 -11.000791 0.788026 -2.634893 12.395905 
4.011302 -0.034237 -0.351024 1.346812 16.716070 -7.975596 0.000000 0.000000 -0.000000 -5.463422 1.605198 0.387853 -0.623739 0.808005 -1.330678 0.000000 0.000000 0.000000 0.010962 0.328958 -1.426946 1.050214 -3.011099 -0.199679 -0.576261 0.412419 -1.939933 -40.061479 -0.144719 0.053053 -30.024024 7.252131 14.125325 -0.450774 -6.483672 2.050864 -0.826689 0.737261 -0.377691 13.089487 5.781609 1.652031 65.241421 5.456257 -6.593660 0.817985 24.725247 -0.343200 0.000000 0.000000 -0.000000 -13.485966 10.048828 -6.128226 -0.225336 4.853717 24.569777 0.000000 0.000000 0.000000 -11.081453 -3.408060 -10.942550 0.406122 -3.145233 12.123070 
4.067214 -0.004373 -0.387051 1.271324 16.394236 -7.922861 0.000000 0.000000 -0.000000 -5.458029 1.694499 0.380044 -0.705996 0.934202 -1.441432 0.000000 0.000000 0.000000 -0.080486 0.476679 -1.524023 1.121928 -3.064812 -0.268543 -0.637723 0.546619 -2.019057 -39.555343 -0.012037 0.167284 -30.558106 6.858645 14.677397 -0.417607 -7.087213 2.077174 -0.982309 0.912729 -0.412649 13.162563 5.732175 1.633977 64.681123 5.751726 -5.606358 0.822384 24.903858 -0.328630 0.000000 0.000000 -0.000000 -13.345456 10.015276 -6.261314 -0.021202 5.197655 24.512606 0.000000 0.000000 0.000000 -10.977489 -3.589375 -10.893694 0.084567 -3.699443 11.723691 
4.062562 0.026361 -0.422866 1.247171 15.907602 -7.858850 0.000000 0.000000 -0.000000 -5.460449 1.756215 0.424485 -0.709630 1.016472 -1.548025 0.000000 0.000000 0.000000 -0.098610 0.579746 -1.616342 1.232925 -3.081937 -0.320570 -0.647833 0.638858 -2.082367 -38.961195 0.103973 0.292406 -31.105741 6.577575 15.387246 -0.393834 -7.686263 2.105474 -1.053580 1.027053 -0.452686 13.275945 5.697410 1.616397 64.294245 6.031704 -5.016466 0.828043 25.415152 -0.312611 0.000000 0.000000 -0.000000 -13.204903 9.997146 -6.361770 0.186133 5.605001 24.391919 0.000000 0.000000 0.000000 -10.880187 -3.684072 -10.885322 -0.149357 -4.146097 11.272858 
4.000842 0.055193 -0.459630 1.261382 15.292041 -7.790426 0.000000 0.000000 -0.000000 -5.463246 1.787583 0.507582 -0.656271 1.055440 -1.653165 0.000000 0.000000 0.000000 -0.036578 0.624456 -1.705215 1.355193 -3.074130 -0.355075 -0.604934 0.675118 -2.137578 -38.268419 0.198006 0.470177 -31.619836 6.487409 16.205873 -0.379512 -8.281130 2.133992 -1.017815 1.067559 -0.501838 13.363071 5.681621 1.602193 63.952637 6.233811 -4.804822 0.834491 26.174750 -0.290411 0.000000 0.000000 -0.000000 -13.075637 10.020922 -6.423901 0.461828 6.102023 24.237405 0.000000 0.000000 0.000000 -10.768021 -3.706221 -10.914704 -0.283148 -4.447935 10.807955 
3.885758 0.079797 -0.498597 1.296713 14.566390 -7.728931 0.000000 0.000000 -0.000000 -5.341471 1.726230 0.559592 -0.546435 1.048308 -1.746999 0.000000 0.000000 0.000000 0.102225 0.608691 -1.787958 1.470826 -3.070510 -0.376390 -0.512774 0.654869 -2.186747 -37.483597 0.279543 0.664489 -32.053584 6.601282 17.002103 -0.379160 -8.953012 2.150459 -0.872418 1.036511 -0.559294 13.409805 5.676591 1.590331 63.697704 6.285708 -4.734086 0.841084 27.148889 -0.273650 0.000000 0.000000 -0.000000 -12.943656 10.110986 -6.471279 0.728540 6.537727 24.121619 0.000000 0.000000 0.000000 -10.615649 -3.697612 -10.993188 -0.346807 -4.625086 10.410600 
